<?xml version="1.0" encoding="UTF-8"?>
<svg xmlns="http://www.w3.org/2000/svg" xmlns:xlink="http://www.w3.org/1999/xlink" width="600" height="660">
<defs>
  <radialGradient id="rg" gradientUnits="userSpaceOnUse" cx="220" cy="220" r="405">
    <stop style="stop-color:#fff;stop-opacity:.3" offset="0"/>
    <stop style="stop-color:#fff;stop-opacity:.2" offset=".2"/>
    <stop style="stop-color:#666;stop-opacity:.1" offset=".6"/>
    <stop style="stop-color:#000;stop-opacity:.13" offset="1"/>
  </radialGradient>
  <path id="shield" d="m2,2v257c0,286 298,398 298,398c0,0 298-112 298-398V2z"/>
</defs>
<use xlink:href="#shield" fill="#ff0000"/>
<path id="inescutcheon" style="fill:#000000;" d="m 150,150 v 109 c 0,122.45655 90.12925,196.92036 150,232.97852 C 359.87075,455.92036 450,381.45655 450,259 V 150 Z"/>
<g id="crows">
  <g id="crow" style="fill:#000000;stroke:#4d4d4d;stroke-width:1;">
    <path d="m 194.45941,563.25298 c -1.51844,0.31449 -2.005,1.4029 -2.84875,2.22342 1.49436,-0.6485 2.91962,-1.29699 4.58579,-1.94549 z" />
    <path d="m 204.23853,562.69405 c -1.84323,-0.38339 -3.71358,-1.10387 -5.50245,-0.81183 -2.0011,0.23246 -3.68261,0.73689 -4.88622,1.64801 0.2272,0.34972 0.16508,0.80788 1.59057,0.70845 l 2.7671,-1.1289 6.43625,1.15491 1.8556,-1.19495 z" />
    <path d="m 211.64689,562.93952 c 2.69523,-0.4851 3.21602,2.50155 3.36851,3.91878 -0.93015,-1.6487 -1.75982,-3.3415 -3.9378,-3.05092 z" />
    <path d="m 195.82499,569.67925 c -1.38798,0.69143 -1.58079,1.86796 -2.18732,2.87656 1.27949,-1.00824 2.49218,-1.99886 3.9378,-3.05093 z" />
    <path d="m 193.27823,566.79655 c -1.51845,0.31449 -2.00501,1.4029 -2.84876,2.22342 1.49436,-0.6485 2.91962,-1.29699 4.58579,-1.94549 z" />
    <path d="m 209.42102,550.3374 c -1.59819,5.48907 -2.14645,8.11365 -4.29999,13.65675 -2.37471,0.25174 -5.13218,0.16148 -7.32649,1.13484 -1.63042,0.38914 -3.04784,0.88478 -4.30788,1.45912 0.20445,0.49466 -0.24329,1.39694 1.32015,1.04222 0.8449,-1.24605 2.30016,-0.96616 3.4741,-1.38963 l 5.83647,-0.69482 -6.60077,2.36238 -1.5286,1.5286 c 0.0162,0.37936 -0.0126,0.78575 0.90326,0.62533 0.83806,-0.63773 1.68882,-1.28816 2.16647,-1.56549 l 4.29534,-0.44948 3.75201,-1.32015 2.08445,-2.01497 c 2.6157,-0.66159 1.55447,-0.74543 2.91824,-0.20845 0.60846,-0.53269 0.26495,-1.20435 0.27793,-1.73704 -0.80819,-0.27564 -0.64363,-0.15879 -1.45182,-0.25628 -1.04467,0.2125 -2.67889,0.39341 -3.72355,1.50695 1.72172,-5.77189 3.87485,-7.36892 5.27487,-12.73439 z" />
    <path d="m 213.35352,568.77083 c -1.51845,0.31448 -2.005,1.4029 -2.84875,2.22341 1.49435,-0.6485 2.91962,-1.29699 4.58579,-1.94549 z" />
    <path d="m 223.13264,568.21189 c -1.84323,-0.38338 -3.71359,-1.10387 -5.50245,-0.81182 -2.0011,0.23245 -3.68261,0.73688 -4.88622,1.648 0.22719,0.34972 0.16507,0.80788 1.59056,0.70845 l 2.7671,-1.1289 6.43625,1.15491 1.8556,-1.19495 z" />
    <path d="m 230.54099,568.45736 c 2.69524,-0.4851 3.21602,2.50155 3.36851,3.91878 -0.93015,-1.6487 -1.75982,-3.3415 -3.93779,-3.05092 z" />
    <path d="m 214.7191,575.19709 c -1.38798,0.69144 -1.58079,1.86796 -2.18732,2.87656 1.27949,-1.00824 2.49217,-1.99886 3.93779,-3.05093 z" />
    <path d="m 212.17233,572.31439 c -1.51845,0.31449 -2.005,1.40291 -2.84875,2.22342 1.49435,-0.64849 2.91962,-1.29699 4.58579,-1.94549 z" />
    <path d="m 229.61225,552.72053 c -1.59819,5.48906 -3.11929,10.97813 -5.97543,16.46718 -2.37472,0.25173 -4.75386,0.48577 -6.94818,1.45912 -1.63042,0.38914 -3.04783,0.88478 -4.30788,1.45912 0.20445,0.49466 -0.24328,1.39694 1.32016,1.04222 0.8449,-1.24605 2.30016,-0.96616 3.47409,-1.38963 l 5.83647,-0.69482 -6.60077,2.36239 -1.5286,1.52859 c 0.0162,0.37937 -0.0126,0.78575 0.90327,0.62533 0.83806,-0.63773 1.68882,-1.28816 2.16647,-1.56549 l 4.29533,-0.44948 3.75202,-1.32015 2.08445,-2.01497 c 2.6157,-0.66159 1.55446,-0.74542 2.91823,-0.20845 0.60846,-0.53269 0.26496,-1.20434 0.27794,-1.73704 -0.80819,-0.27564 -0.64364,-0.15879 -1.45183,-0.25628 -1.04466,0.2125 -2.08931,0.39341 -3.13397,1.50695 1.33843,-5.69751 3.6656,-11.39501 6.67025,-17.09252 z" />
    <path d="m 201.97695,531.23653 c 3.3886,3.30646 6.37234,15.62985 6.72734,20.007 1.02734,0.17663 0.93591,2.02919 4.18382,1.06619 0.55425,-1.20941 1.11004,-1.64436 1.84816,-3.51497 0.65252,-5.64654 -2.34644,-11.01515 -3.24186,-16.66169 z" />
    <path d="m 212.9579,487.96077 24.13891,17.5749 19.6824,14.16945 3.44229,2.92944 c 1.20531,1.34758 1.97198,2.66813 0.5892,3.85613 0.46114,6.93098 -27.91688,-11.97312 -41.87532,-17.95968 z" />
    <path d="m 179.06984,453.18629 c 9.63823,-4.12199 16.03225,-1.87842 20.54188,4.06254 3.0212,4.68979 4.75943,7.88864 6.62318,10.87717 2.67274,4.28573 4.63612,7.7027 6.18143,11.37417 9.167,7.7467 16.88551,16.3695 23.93215,25.39867 11.68845,15.54348 16.24112,18.2993 20.98514,26.89058 2.22157,6.28124 19.58475,18.51561 25.5146,20.81009 1.70111,1.75433 -0.82026,2.64438 -3.4003,2.31697 -0.83492,1.92774 -3.71434,2.07897 -5.67956,0.92329 -7.10473,-0.15687 -15.30061,-8.08814 -19.39461,-12.40425 -5.89486,-6.21467 -13.53855,-0.85488 -20.06851,-1.5672 -5.46117,1.70184 -8.92966,2.50011 -16.28446,0.4374 -13.00097,-3.64622 -18.63961,-11.68035 -31.64966,-22.89722 -3.55144,-3.06195 -4.66871,-7.25178 -5.4962,-11.97606 -1.14679,-5.15892 -2.37152,-10.33194 -0.93306,-15.69894 1.92034,-4.88253 3.59634,-9.57194 3.08989,-15.30531 -0.3523,-3.98841 -3.64837,-10.01782 -9.86757,-12.68596 l 2.68187,-9.66445 z" />
    <path d="m 217.54006,487.73137 c 11.48089,7.47136 14.9111,15.85281 22.02696,23.51953 l 22.83744,22.54126 c 3.36953,2.36976 7.31886,6.62299 10.68839,6.41804 8.51484,2.59743 10.61655,9.65594 2.38045,5.67233 0,0 -10.27739,-3.61421 -26.16512,-12.26313 -15.79409,-8.59794 -26.11154,-10.89224 -40.68328,-18.98654 -13.53084,-7.51611 -18.64514,-26.50871 -18.64514,-26.50871" />
    <path d="m 157.4854,458.68774 c 0.91934,-2.51682 11.06021,-5.30377 17.73945,-4.77373 1.01964,-0.77608 2.03926,-0.5875 3.0589,-0.33468 1.27462,4.46597 0.82884,6.19258 0.27216,8.36931 -1.17907,1.276 -5.05879,1.22361 -5.43243,1.78167 -4.63435,-2.99315 -11.02003,-2.45998 -15.63808,-5.04257 z" />
    <path d="m 189.40955,459.68906 c -0.0208,0.87906 -0.94499,1.5023 -2.06301,1.39117 -1.11801,-0.11113 -2.00853,-0.91477 -1.98776,-1.79384 0.0208,-0.87906 0.94499,-1.50231 2.06301,-1.39117 1.11801,0.11114 2.00853,0.91477 1.98776,1.79384 z" />
    <path d="m 157.66568,458.80764 c 6.08326,-2.90533 17.38683,0.51523 20.71957,3.04066" />
    <path d="m 223.47146,538.90646 4.46375,6.9599 c 0.86296,2.6853 1.13797,5.04352 1.43314,7.41295 0.76801,1.28276 1.85144,0.9932 2.87066,1.02366 1.17649,-0.0541 2.1168,-1.15357 3.00748,-2.47268 0.63139,-3.95438 0.64804,-7.85928 0.17161,-11.7245 -0.50702,-3.21971 -1.15585,-5.27334 -1.12223,-8.49986" />
    <path d="m 187.1203,459.09529 c -0.004,0.21723 -0.19781,0.37124 -0.43185,0.34377 -0.23403,-0.0274 -0.42045,-0.22605 -0.4161,-0.44327 0.004,-0.21722 0.19782,-0.37123 0.43185,-0.34376 0.23404,0.0274 0.42045,0.22604 0.4161,0.44326 z" />
    <path d="m 264.25369,541.15545 c -4.66227,-2.46467 -12.10573,-1.1356 -18.06059,-0.75658" />
    <path d="m 203.69475,490.62913 c -0.4567,18.71874 26.66178,22.99333 39.99267,34.48999" />
    <path d="m 261.07981,526.59305 c -2.3293,-0.27336 -4.98856,-2.34887 -8.45054,-5.10963" />
    <path d="m 271.59385,539.93709 c -6.01942,-1.40597 -9.12325,-4.64659 -13.65843,-6.56395" />
    <path d="m 218.04101,499.86577 c 9.29817,13.16407 17.16311,13.42915 25.74467,20.14372" />
    <path d="m 279.55308,554.89254 c -5.4952,-1.27344 -15.62705,-7.78665 -18.37501,-10.61231" />
    <path d="m 265.79639,550.17595 c 2.2483,2.57828 4.91928,3.91813 7.66444,5.50268" />
  </g>
  <use transform="translate(-105,-130)" xlink:href="#crow" />
  <use transform="translate(-145,-287)" xlink:href="#crow" />
  <use transform="translate(-145,-437)" xlink:href="#crow" />
  <use transform="translate(0,-437)" xlink:href="#crow" />
  <use id="reverse-crow" transform="matrix(-1,0,0,1,600,0)" xlink:href="#crow" />
  <use transform="translate(105,-130)" xlink:href="#reverse-crow" />
  <use transform="translate(145,-287)" xlink:href="#reverse-crow" />
  <use transform="translate(145,-437)" xlink:href="#reverse-crow" />
  <use transform="translate(0,-437)" xlink:href="#reverse-crow" />
</g>
<g id="tree">
  <path style="fill:#ffffff;" d="m 289.75866,166.39197 c -1.12721,6.54872 0.19186,4.79441 -2.50288,10.34061 -0.46333,6.29966 9.40464,19.45297 7.60243,6.21977 -1.10498,-2.07649 4.94731,-10.34139 5.89369,-5.76638 -6.08957,5.67195 -0.34058,10.46974 -4.17728,12.0757 -2.90298,2.9418 -5.18387,11.83474 -1.07461,15.03323 9.1301,-0.46348 7.69844,25.32004 14.07278,9.59232 -2.50819,-6.98462 -5.41404,-13.29422 -5.97813,-20.03434 -1.0944,-7.9279 3.47977,12.49109 5.34928,6.56708 -1.29103,-6.25921 4.41805,-12.50532 5.43901,-10.82414 1.25515,-0.2964 -2.97995,6.03352 -3.57346,10.10979 -0.85052,2.84968 1.0471,17.11765 3.86422,5.50676 4.97922,-5.90333 4.72775,-14.0823 2.66871,-21.89893 -4.05928,-2.35931 0.76301,-12.14915 1.54815,-10.9092 -4.83512,8.13048 7.8858,17.66806 5.09064,4.61476 -3.67808,-9.55707 3.1168,5.02906 1.7966,-5.39637 -1.91068,-7.87307 4.72616,-0.31504 1.33683,2.85126 -3.86923,13.35646 2.02462,0.2402 4.41004,1.68098 -2.30172,4.4855 9.18705,-3.28093 1.16626,2.61681 -6.84218,3.54015 -10.50288,10.71311 -10.25623,18.55795 5.14637,-4.3953 5.57979,-10.00378 11.87481,-12.28153 -2.07726,3.35165 -2.47739,8.51492 -5.35013,7.97373 3.63644,1.67308 -9.76577,7.52923 -9.32329,13.22349 -3.10975,9.25377 -7.1776,18.19945 -10.82181,27.17916 -3.90801,3.62121 -3.71101,16.99647 3.79774,11.37767 9.0385,-4.92518 14.00156,-14.40131 18.41766,-23.15336 2.98034,-8.59568 8.21177,-17.45694 6.80472,-26.24648 2.9102,-0.218 1.71299,3.03553 3.92543,0.83464 1.52186,-3.15148 -0.31432,-6.0849 1.92399,-9.68769 2.74216,-10.08878 2.75351,6.07245 6.4501,-4.47081 2.84234,-5.59518 2.61725,1.89012 -0.56181,4.30691 -5.27511,3.98505 -6.28292,10.5188 -6.81659,16.60156 3.83976,-1.57112 12.66243,-19.67248 10.49206,-10.43885 6.57661,-6.80681 9.72721,-3.59102 11.63375,-4.3521 -1.8916,2.82198 -5.15057,1.4985 -10.68899,5.21879 -4.92808,6.1923 7.55333,3.9518 7.57888,3.91398 3.29048,5.70454 -9.36968,-1.61669 -12.7599,3.87325 -2.05729,2.58845 -11.01673,13.98199 -3.9316,14.29789 8.89983,-4.87774 19.66475,-4.94519 27.51394,-11.94818 5.60227,-4.88969 10.36003,-9.32406 12.96425,-16.79208 4.51821,-10.9315 -1.58212,5.36276 4.45143,-0.78564 -3.1676,5.12648 -7.91874,7.14396 -0.18586,7.92832 -9.26543,1.17468 -11.79134,12.01607 0.30143,8.49913 5.92411,3.9138 8.76016,-9.58011 9.29178,-5.00141 1.06486,-3.93242 8.71004,-1.19046 3.01018,0.67362 -11.27355,7.22907 5.09253,3.21893 10.499,5.18677 7.38319,-0.51765 15.10217,-3.48396 5.44231,0.91249 3.2733,3.68778 6.39267,3.23567 9.96275,2.74434 4.67026,0.15987 -9.04721,1.96255 1.84116,3.29786 2.33958,3.11136 -5.62315,1.43179 -8.71356,-2.60706 -2.4391,-5.05489 -23.03104,-3.71019 -11.70779,0.0437 6.9058,1.80703 6.3635,-0.25331 4.61456,4.05317 -1.14128,1.12501 -2.54549,-3.03578 -5.87119,-2.15643 -5.16811,-3.29164 -10.79044,-3.66302 -16.19626,-2.38284 -6.99351,-0.0614 -14.77467,-0.95684 -20.34673,4.11176 5.09214,4.30327 21.24718,-1.10633 18.21336,0.47822 -3.33661,4.60598 15.00559,1.7192 4.891,3.96852 -6.6109,-3.04454 -16.26624,-0.55041 -5.01166,4.03982 2.88746,3.66862 13.05877,-0.10176 11.32774,1.35846 8.37192,-3.20844 7.67838,-5.4634 5.44668,0.86159 7.90854,4.27098 -4.56979,0.68357 -7.36399,0.70035 -1.04471,4.4794 6.42056,5.10223 6.23994,4.78258 -5.56113,2.9297 -5.65609,-3.67793 -11.72159,-3.47651 -5.17955,-0.51838 -9.41293,-6.0922 -15.00928,-6.94261 -6.26832,1.10548 -12.17812,-2.80944 -17.87686,1.27319 -5.77897,3.32407 -11.04112,7.37153 -17.01358,10.36692 -8.07506,5.89525 -9.59047,22.00077 2.19058,10.20718 4.6992,-0.7871 12.44931,-13.4459 8.47103,-3.53337 6.17519,2.65106 11.63382,-1.22903 14.09868,-1.36952 6.24569,-0.89244 -6.3841,4.65161 -5.88457,3.62906 3.13288,2.09442 -14.23112,-2.83891 -16.23578,4.17643 0.38324,2.76299 13.6243,5.195 13.42845,3.70436 11.32586,3.37769 -5.41343,-0.0388 -2.65014,2.68177 8.53747,4.63323 -1.63903,0.36996 -0.12899,1.91943 -1.27446,-3.56643 -19.2234,-5.90278 -13.10787,-0.44914 -5.4421,-3.75023 -15.01049,0.74074 -19.29412,6.47628 -1.76103,6.57223 -5.29547,12.86847 -3.35279,20.01006 7.64039,-2.18286 12.92557,-12.23692 22.55229,-10.31634 9.73451,-0.17545 18.65146,-5.77984 23.2747,-14.33819 3.85412,-5.35335 10.57975,-12.05555 11.52192,-16.01938 5.22666,-3.60911 11.83879,-2.50844 15.5471,-5.21793 -0.0158,2.90639 -11.74862,5.29016 -2.63762,5.96263 4.61448,4.73545 -12.07444,-0.96988 -8.72669,-1.1024 -8.10074,5.20612 -2.39723,11.11756 5.84276,7.42062 6.17184,-0.13891 11.96182,1.29156 18.51974,0.75826 4.32042,-6.18912 5.59934,-5.99717 9.7109,-12.30312 0.33695,3.75409 6.09132,-6.3104 3.3698,-0.91718 -1.5823,4.46899 -15.51125,15.84058 -2.73649,9.32627 2.18734,-2.61775 13.61845,-9.44105 5.22156,-2.48677 4.19272,3.32968 9.4548,-3.27324 8.20265,1.68479 10.39675,-0.10662 -2.96589,1.96284 -8.51688,1.07631 -11.78269,4.50899 -0.67706,3.92872 4.39073,3.89127 -8.29352,1.37965 -2.50333,4.1113 -11.49543,0.91952 -5.15937,1.20948 -17.35974,0.98003 -9.72025,7.95548 2.90693,3.21901 8.40399,1.08898 11.71904,0.39102 -5.62376,3.22076 -14.84076,2.17099 -4.10578,7.55873 4.16867,3.77421 -2.53627,2.18614 -4.82629,-1.51676 -4.44153,-4.18575 -3.64369,-0.53325 -5.10029,-6.62807 -4.94933,-5.11834 -11.11565,-6.16894 -18.16339,-5.3341 -8.27108,3.97042 -19.68553,16.09984 -17.84739,24.09303 7.52696,4.32953 18.06825,4.50015 24.30965,-2.12545 9.54013,-0.27905 -1.99714,0.1385 -2.09997,4.84878 5.23779,0.0547 16.50073,10.82807 6.0909,4.42571 -3.49269,1.90377 8.58554,7.57593 0.24301,4.45268 0.96722,6.01102 -4.69877,-12.00772 -12.84415,-5.27141 8.76709,6.9553 -10.45986,-6.70112 -3.36341,5.45482 3.53248,7.16182 8.14362,17.1173 17.78266,13.98952 5.71757,-2.45339 5.20511,-10.51977 9.88381,-14.82617 0.44007,-2.23316 8.64205,-11.60505 6.30359,-6.91525 1.42146,4.38865 7.57147,-8.07216 6.11877,-0.86266 -2.59834,1.59572 1.35936,3.808 -2.84,3.41986 -12.19703,-0.89995 -8.27675,12.47631 2.37367,5.01891 5.42385,2.58168 13.37651,-14.22981 11.52114,-8.59395 6.96046,-0.56778 -6.10687,5.01387 2.49757,3.79208 8.0677,-1.40677 -8.71928,2.30161 1.58862,9.68873 -1.48321,3.18424 8.84532,6.17562 3.94121,6.23216 -0.47365,1.86423 4.41773,11.20133 0.47026,5.23718 -4.24886,-3.70234 -3.58574,-8.94699 -10.13176,-12.31346 -6.62221,-5.46878 -11.81243,5.19543 -19.99958,3.7197 -8.10915,4.39341 0.13707,9.34045 5.37494,9.30468 6.75186,2.43344 15.22771,4.82852 19.72375,6.93264 -2.85678,2.64436 -5.97682,-1.84011 -13.06692,-2.56548 4.68228,4.86153 6.37444,10.63576 15.35505,6.57566 1.67741,2.47158 -0.10389,4.96028 -6.61672,2.86017 6.18122,7.12338 -6.63165,-4.75068 -5.25127,0.59172 -1.69965,-4.76961 -12.16036,-16.98641 -12.62324,-7.61611 1.83449,3.41603 7.02103,6.01534 0.19689,2.38367 2.77436,11.20099 -4.59788,-10.40494 -3.55245,-7.05698 -5.7447,-3.08563 -11.861,4.83683 -17.90021,1.47046 -11.02237,-3.37028 -2.36353,13.10411 4.06758,8.95881 2.01213,-1.78004 6.25783,-3.36842 2.02086,-0.69059 -4.77023,0.85318 0.58289,8.44438 -3.36786,4.0748 -5.80507,-3.42572 -10.67876,-5.87036 -7.97484,2.44858 -5.18291,-3.24792 -0.38404,-5.16723 -3.23016,-11.96291 -2.99636,-6.86289 -9.21068,-12.35736 -14.01613,-18.35499 -3.75847,-6.40478 -12.05468,-6.86007 -18.60163,-8.03038 -6.75542,0.0717 -19.24686,10.81995 -7.08371,13.27166 4.84998,3.93242 13.36746,3.98904 13.07456,1.55959 3.24971,5.99658 6.82449,-6.92916 10.27783,-3.04814 -6.14628,1.39739 -5.37988,7.88098 2.08598,10.95421 6.72647,3.77769 0.87572,2.25865 -2.18104,0.98146 -1.93496,-7.52621 -16.07844,-5.11529 -11.18736,2.96242 1.8958,6.6557 3.84833,14.92385 13.00454,12.41668 4.24564,-3.81632 7.90745,-4.64477 3.17863,1.29356 8.75782,2.76119 -11.85262,0.85035 -8.83088,0.4326 -1.13159,2.05106 11.16659,12.05456 15.70963,4.64213 0.66492,1.35655 -3.35738,3.6317 1.08968,3.99609 1.43541,1.65038 -5.83626,-1.34896 -3.24269,3.76887 8.63659,7.70857 -6.90645,-2.72038 -10.211,-5.5328 -1.97226,2.52717 -0.70234,3.75423 -3.8429,-2.90683 -5.25783,-9.33694 -10.8442,-6.58281 -7.85068,0.66492 5.96826,9.50938 -3.21046,-0.48706 -2.43053,0.42899 -3.20486,8.25839 -0.0999,-0.73422 -1.4862,-3.72729 1.66937,-6.62542 1.16854,-19.10532 -8.18865,-20.16631 -9.23847,-7.21858 -20.90243,4.02809 -19.9304,13.6321 1.73001,8.23085 7.99576,14.88902 7.59651,23.70903 4.10687,10.13434 16.8331,11.45943 25.00597,17.13303 5.95005,5.2374 14.02268,-1.87074 20.89786,1.89631 6.7001,2.65012 11.70123,9.27044 17.91695,13.22455 1.88554,2.83916 0.69089,3.23379 6.7627,8.39424 -3.98609,2.6289 -10.42809,-5.7067 -14.75318,-8.43858 -7.74479,-5.81605 -18.93757,-6.50347 -27.47537,-2.46612 -8.98257,2.07514 -19.1589,-4.82224 -26.08119,-4.87302 0.14159,8.63152 8.09932,12.35931 13.56508,17.342 2.6411,3.69832 5.70244,7.25669 6.82596,11.73516 -4.99977,-0.29812 -7.45862,-7.26628 -12.07803,-9.63112 -9.97908,-7.45966 -23.04003,-9.32575 -31.68703,-19.02547 -5.45857,-7.87665 -10.12126,-8.30312 -15.50824,-0.40615 -9.86818,3.04808 -18.57267,5.66842 -20.79518,16.88055 -6.02719,2.27156 -11.07919,8.16907 -16.42692,10.54239 -5.91861,2.85945 13.42113,-19.81129 7.44488,-12.45978 5.0532,-5.03205 -0.0378,-16.83561 4.41801,-21.91065 -6.36856,2.26468 -12.94852,1.57189 -18.58846,6.24333 -10.30617,4.59767 -21.37755,-5.63453 -31.10771,1.61829 -6.17378,3.79416 -12.5549,9.63971 -18.92927,11.8855 2.24549,-8.99548 9.43993,-10.40415 12.28487,-13.28778 6.10303,-5.17395 14.61965,-5.61711 21.70006,-8.95477 7.6751,0.97102 12.01536,-3.66211 16.23833,-9.00017 6.56527,-4.22076 14.70562,-7.608 18.99348,-14.43389 2.74532,-9.16031 1.36627,-18.94525 3.17925,-28.31847 -3.35081,-5.96107 -10.73894,-6.97565 -16.8485,-5.6096 -7.12891,0.96305 -17.84564,0.78617 -19.76745,9.93603 -2.20029,5.5878 -3.28563,13.13013 -1.01287,16.95289 -1.09196,9.66993 -0.81864,-7.87899 -4.97735,2.06643 -5.05176,3.9299 6.48136,-7.73073 1.96061,-10.67218 -1.36705,3.24342 -14.21096,4.44302 -5.96989,1.9695 -5.45785,-1.46878 -8.36499,-3.72177 -3.6405,-3.20536 -1.38823,-0.45195 12.21039,5.01905 9.38694,-5.26461 -2.95226,-1.45496 -8.70072,-0.34061 -0.83125,-2.54703 9.48794,-8.05531 -4.51321,-10.38351 -11.13274,-11.406 -7.25435,4.95492 -16.87494,11.67093 -20.55442,19.45166 3.0679,5.26287 -8.31634,7.33862 -1.38716,1.3937 0.8537,-9.37594 -17.03307,11.91288 -12.57279,2.71319 -11.87993,3.46983 -3.59569,-0.26583 2.85958,-2.08681 1.1852,-3.70652 6.86858,-1.41089 9.51488,-7.27422 -2.97247,-1.99194 -15.41198,-3.01297 -19.36815,3.22339 -3.5008,3.28321 4.36269,-4.42248 -4.6027,-2.73521 -6.92567,-3.00799 8.4361,2.08497 9.76624,-3.17064 -3.90079,-6.03496 -9.59003,-1.79929 -12.68667,-4.98808 -6.46924,-3.2253 11.69438,2.38611 4.31026,-4.28782 -7.16682,-2.57891 1.5546,0.30664 -1.45247,-4.95295 3.24834,3.01793 5.51685,13.89704 14.18969,12.25349 11.10241,1.41585 -8.18359,-9.44687 -3.57538,-8.34077 5.64797,0.18458 2.68104,1.05308 8.77781,6.99149 5.92664,2.27481 15.76516,-3.48835 14.60278,-10.39353 -8.57409,-6.42206 -19.67749,-6.64349 -29.62837,-9.2134 -4.60573,-6.16905 -7.74353,4.54518 -11.59684,3.23909 5.69423,-2.57347 -5.19921,-3.37399 3.68443,-4.02091 9.5218,-6.95096 -18.61491,-3.53638 -9.78753,-6.7506 6.02999,2.81386 6.88753,1.63215 6.4383,-0.45085 5.21925,2.39986 11.86237,6.12645 18.0309,6.30294 7.63876,-0.0365 -22.87103,-20.51575 -12.10433,-13.66543 -9.54834,-1.22333 -6.91013,-2.4595 -12.14635,-6.81744 3.26467,-0.80154 8.73717,7.395 15.42385,5.57883 3.74805,-3.77336 -4.76548,-14.46902 0.25127,-8.76311 1.38433,4.78198 9.58084,-0.76959 4.05011,3.0678 -6.44261,6.78753 3.77696,8.74846 5.40402,3.88895 -0.2206,3.4456 5.40621,1.88962 -1.94915,2.89006 -6.82773,8.21708 13.01707,12.17188 19.08132,14.37045 12.65116,6.44334 1.58049,-10.74444 -3.25055,-13.17853 2.40436,-2.2473 -4.74962,-9.58479 -9.47159,-10.8375 2.79022,1.0356 1.32659,-2.69774 -1.94467,-6.8359 3.79202,3.85917 5.72879,9.45227 11.02739,11.86036 1.28917,-3.53121 -1.72793,-10.99772 2.27715,-1.38862 -2.47486,6.81936 8.05124,13.52501 4.05274,2.47595 0.63025,-4.59819 1.12354,7.11824 2.94673,1.54964 -3.82422,10.26035 7.57464,21.5866 17.84164,18.52279 6.99637,5.05573 15.44718,6.47491 22.22771,-0.0775 8.71247,-3.58581 2.55399,-11.68956 -0.71774,-16.69681 -5.04183,-3.38734 -14.16934,-11.28244 -20.16612,-4.12085 -5.39886,3.0067 -13.87971,2.32933 -3.10452,0.29768 9.38629,-4.17523 -12.02254,-1.30147 -14.05968,-8.7806 -6.90365,-4.84497 3.94999,-0.0445 5.7651,2.8589 7.94266,4.61057 -1.67045,-4.54282 3.98044,-2.05565 2.31938,5.02603 13.81261,4.13557 12.67208,0.52446 -6.18833,-5.1781 -3.27524,-4.62798 -8.3291,-8.67301 -3.64784,-6.70945 5.28178,5.40532 7.93215,1.99603 0.68282,7.58822 9.14314,9.34657 15.56237,11.56692 1.53338,-0.78947 0.8666,-14.56607 -6.39608,-11.91784 2.9796,-0.0781 -6.89452,-8.7725 1.38479,-2.78316 3.84617,1.51808 1.28302,-2.63421 4.00436,2.66944 3.35957,5.77646 5.11334,3.77816 8.66835,1.6222 -4.87303,4.8997 -5.00628,14.07292 1.49512,18.16944 4.66018,3.26413 7.11311,10.44352 13.58755,11.53808 14.03205,2.44848 7.34101,-16.66639 5.95458,-24.32685 -6.00569,-7.60646 -11.92332,-16.94954 -20.25606,-22.09149 -6.87726,-0.6171 -13.47336,7.1174 -20.51629,1.46706 -7.30039,-3.10563 -12.73823,2.58763 -19.26643,3.68498 -7.69214,1.8873 -16.82991,0.72973 -22.06698,7.54221 0.39389,-3.09497 -6.25372,-2.48421 2.06424,-3.49295 0.89835,-3.11122 10.08862,-3.43618 1.13593,-5.03336 -7.03776,-0.15089 -13.6304,-3.15531 -20.38591,0.44873 -0.97487,0.22151 -0.37568,-4.03404 3.05982,-2.79165 4.60843,-2.62676 -13.95534,-16.75113 -1.47072,-7.04063 3.34638,3.09791 3.28403,-4.86431 4.96993,-0.62567 -6.68775,3.48259 3.52144,9.45163 7.25661,6.39502 1.64969,-0.3277 6.47619,0.01 8.75576,0.19647 -2.51893,-2.60744 -3.29035,-7.53327 -6.93095,-7.97713 6.28187,-4.38908 3.38593,0.55895 8.2506,6.15167 4.39873,6.39852 13.18712,3.7123 18.97566,0.54081 3.63722,-5.41595 -11.5209,-11.39732 -16.82114,-13.8148 -4.84616,-5.48168 -7.60775,2.49148 -10.07401,-0.0401 6.41605,-3.73619 -0.0914,-4.30593 -5.68313,-7.07458 -5.9248,-3.10041 -2.57173,-4.57286 1.25409,-0.73493 9.613,3.72864 -4.91343,-10.25699 -2.20886,-7.22415 -2.34151,0.66224 8.09695,0.39382 0.27878,-4.25069 -6.97146,-4.77926 3.01929,1.12959 2.46279,-2.65967 2.92711,10.97261 5.66736,10.78607 7.99197,3.99714 -1.99045,7.09804 -2.06394,13.39433 8.38702,14.49287 5.85316,2.97399 14.89975,8.88328 10.72718,-3.0019 -5.35805,-5.31995 -4.25728,-14.42274 -2.53323,-11.71607 0.57313,2.96686 5.81713,17.85575 7.3714,7.69346 -2.80751,-5.51206 6.87124,-7.6559 2.40804,-4.03682 -1.96971,6.38669 -2.53053,11.9348 1.21613,8.40314 2.54018,0.50479 -7.88777,4.50362 -2.93465,9.35236 4.85994,3.94611 14.47076,8.82401 21.14206,5.07664 8.7757,-1.17543 13.22962,-15.88504 4.16521,-18.43655 -6.84718,3.51595 -5.94804,1.51059 -13.46282,7.71638 -1.02265,-0.42694 9.99307,-8.63119 1.62242,-10.54303 2.14493,1.04864 14.16681,2.0744 6.21374,-5.07572 -5.8773,-4.17102 -7.07661,-2.29704 -12.20034,-7.15824 1.29765,-1.34634 14.96463,8.62104 8.20755,-2.85232 -6.0943,-4.15614 -9.44196,-4.6555 -0.15637,-3.15296 3.17241,-0.82466 -1.2687,-16.98978 2.42142,-4.54453 1.53016,4.22456 3.58855,-2.08227 0.91208,4.68477 2.62353,5.66623 11.59493,25.21055 16.95129,19.10911 -2.14546,-0.004 10.43342,-7.31353 3.82106,-1.56171 -2.36429,1.25432 -5.13991,13.48372 2.86943,17.23019 5.08493,10.11368 10.60733,1.2987 6.71687,-5.24891 -4.43609,-2.85959 -5.64716,-7.46417 -2.1454,-5.43605 1.64317,-0.24905 3.43301,-4.72118 1.96734,2.25842 1.90342,10.64586 9.16264,-3.56384 9.30524,0.60675 -5.07303,4.97677 5.42766,3.87875 -3.52778,5.06357 -3.00725,2.27797 -1.71777,7.60029 -1.21017,11.39296 1.28253,5.28383 10.5736,14.99385 14.60573,9.42428 4.04401,-7.89344 4.51455,-17.67612 3.08867,-26.24777 -4.22889,-4.62418 -8.19711,-10.49995 -13.50843,-12.67483 -4.65647,-1.66095 -8.61026,-5.49438 -13.43466,-5.31438 -4.12993,-2.25253 -12.05571,10.54247 -10.10972,2.67825 5.76233,-2.98566 -1.39067,-4.14359 0.31571,-6.03881 6.38223,-0.19401 3.07247,-0.83972 1.37757,-3.98548 3.4923,5.151 14.07028,5.72866 7.8303,-1.80402 -0.61326,-10.78668 -15.02725,-8.854 -17.45933,-13.26041 9.68623,3.13422 1.8909,-1.00587 -2.0217,-4.20741 -11.08743,-7.95895 13.76899,6.60929 8.10304,2.37213 -2.98302,-10.13275 0.88593,-0.63604 4.8682,2.69602 4.11206,4.18714 2.29079,-11.40605 4.68486,-0.11776 0.60452,6.41823 4.64494,10.79806 6.0438,3.51407 0.57999,5.14265 -1.76981,11.05972 5.034,15.40091 8.18953,6.75996 -2.54966,-7.68644 3.06848,-10.23686 0.47401,4.70721 -0.55744,9.34287 2.67433,4.32452 -3.34357,7.74177 11.33729,17.98751 9.03278,4.36726 0.60061,-9.31345 -8.51418,-17.2977 -12.51226,-22.08925 -5.93394,-6.95546 5.14019,0.99771 3.90061,1.07312 6.1022,8.3013 6.02707,0 7.10514,-5.13689 -0.0566,5.94924 0.74992,1.09241 2.61896,-0.6012 z" />
  <g id="face" style="fill:#000000;">
    <path d="m 297.22014,290.98457 c 0,0 -1.3478,1.56059 -2.62465,1.70245 -1.27685,0.14189 -3.26307,-1.34777 -5.03647,-1.77339 -1.77342,-0.42563 -3.68868,-1.20591 -6.24238,-0.78031 -2.55371,0.42562 -2.69559,1.48967 -4.53993,1.48967 -1.84433,0 -6.24238,-1.70247 -7.51923,-2.5537 -1.27685,-0.85125 -2.05716,-1.48966 -2.05716,-1.48966 0,0 0.63842,3.12119 2.05716,3.83054 1.41871,0.70937 4.25616,1.48968 4.82367,1.63153 0.56748,0.14189 1.13497,0.92218 3.12119,0.49657 1.9862,-0.42563 3.61773,-1.70248 5.03647,-1.63154 1.41871,0.0709 2.62462,0.14187 4.1143,0.99312 1.48965,0.85123 2.12808,1.34777 3.26305,1.27685 1.13499,-0.0709 3.6887,0.2128 4.46898,-0.56751 0.78031,-0.78028 1.135,-2.62462 1.135,-2.62462 z" />
    <path d="m 300.11657,291.72034 c 0,0 2.30733,1.15366 4.01275,0.65206 1.70542,-0.50159 1.85591,-1.95622 4.81533,-1.80574 2.95939,0.15048 5.26673,1.30415 7.17279,1.10352 1.90606,-0.20065 4.26356,-1.254 6.922,-0.75241 2.65846,0.50162 4.31373,-0.40127 4.31373,-0.40127 0,0 0,1.30417 -4.01277,2.10671 -4.01276,0.80255 -6.32009,1.20383 -8.72775,0.60192 -2.40765,-0.60192 -1.40446,-1.50479 -4.8153,-1.254 -3.41084,0.25081 -2.30734,1.85591 -4.56452,1.80574 -2.25717,-0.0501 -5.11626,-2.05653 -5.11626,-2.05653 z" />
    <path d="m 289.73192,309.13413 c 0,0.23238 -0.54967,0.15709 -0.5748,0.39143 -0.0206,0.19179 0.12294,0.34692 0.18736,0.51677 0.098,0.25849 0.0497,0.54279 0.15732,0.79968 0.11268,0.26907 0.35495,0.44826 0.5769,0.62055 0.16389,0.12722 0.32349,0.25814 0.48167,0.39216 0.29698,0.25163 0.70587,0.31124 1.08773,0.28405 0.39152,-0.0279 0.78177,-0.13028 1.11213,-0.36005 0.23515,-0.16354 0.31655,-0.44205 0.31384,-0.72207 -0.002,-0.20822 -0.0171,-0.51931 -0.25389,-0.52432 -0.37964,-0.008 -0.75896,0.0185 -1.13601,-0.0382 -0.42827,-0.0643 -0.85186,-0.25741 -1.10767,-0.61452 -0.22202,-0.30994 -0.84458,-1.12503 -0.84458,-0.74554 z m 3.18319,2.40736 c -0.0598,0.0329 0.042,-0.0231 0,0 z" />
    <path d="m 294.56773,298.47469 c -0.0632,1.18207 0.18049,2.35199 0.14145,3.53671 -0.0485,1.47226 -0.0665,2.94388 -0.0664,4.41807 9e-5,1.35709 -0.69922,2.59063 -1.0342,3.89669 -0.21821,0.85079 -0.32343,2.00983 0.49788,2.64052 0.80111,0.61517 1.64187,1.27247 2.67192,1.41857 1.1483,0.16288 2.3651,0.41738 3.48533,0.0618 1.10947,-0.35214 2.07632,-1.01319 1.40711,-0.575 -1.43176,0.93749 0.48207,0.0613 0.33069,-2.23808 -0.0459,-0.69665 0.57765,-1.73393 0.90151,-1.18067 0.46393,0.79253 -0.0862,1.797 -0.40061,2.6378 -0.57094,1.5268 -3.33451,2.2036 -4.73002,2.10606 -1.27732,-0.0893 -2.6406,-0.21992 -3.70073,-1.02717 -0.68686,-0.52301 -1.49901,-1.02894 -1.4456,-2.0604 0.0464,-0.89571 0.17925,-1.7236 0.53088,-2.5478 0.52239,-1.22445 0.572,-2.58776 0.53344,-3.91851 -0.058,-1.99989 0.27081,-4.02267 -0.0966,-6.00648 -0.11593,-0.626 0.42848,-1.00737 0.94943,-1.14989 0.47944,-0.13117 0.0167,-0.0175 0.0245,-0.0126 1e-4,7e-5 0.063,-1.1778 0,3.6e-4 z" />
    <path d="m 307.59209,308.89177 c 0,-0.30218 -0.51092,0.27273 -0.77666,0.3933 -0.26336,0.11948 -0.0671,0.52415 -0.31925,0.64473 -0.19071,0.0912 -0.3907,0.18444 -0.60069,0.18996 -0.90565,0.0238 -1.82476,-0.1525 -2.71962,-0.008 -0.34581,0.0559 -0.78359,0.2724 -0.85131,0.61607 -0.0543,0.27544 0.63023,0.26218 0.36286,0.47059 -0.22049,0.17188 -0.29571,0.43854 -0.15223,0.69312 0.15689,0.27837 0.46128,0.25634 0.72573,0.25491 0.41968,-0.002 0.84403,0.008 1.25263,-0.11378 0.37144,-0.11059 0.74272,-0.22369 1.07328,-0.4392 0.25574,-0.16672 0.50825,-0.33835 0.78339,-0.4663 0.3834,-0.17829 0.78489,-0.35417 1.08979,-0.65021 0.23468,-0.22787 0.16679,-0.59027 0.2428,-0.88739 0.0557,-0.21755 -0.11072,-0.41713 -0.11072,-0.69783 z m 0.0787,0.0746 c -0.0211,0.0697 0.009,-0.029 0,0 z" />
    <path d="m 279.3442,323.40241 c 0,0 0.49656,-1.91528 3.54681,-2.62465 3.05025,-0.70936 6.02958,-0.78029 8.22861,-0.63842 2.19902,0.14188 4.04336,1.48967 7.59017,0.85124 3.54682,-0.63842 2.76651,-1.34779 7.09361,-1.20593 4.32712,0.14188 4.82367,-0.35468 7.803,0.56751 2.97931,0.92217 4.25616,3.47587 4.25616,3.47587 0,0 -3.40493,1.91526 -4.18524,3.61774 -0.78029,1.70248 -2.48277,4.3271 -3.90148,4.53993 -1.41874,0.21279 -1.91528,2.62462 -3.9015,2.83744 -1.98622,0.2128 -5.74583,-0.14188 -6.45518,-0.70936 -0.70937,-0.56749 -4.04338,-1.48966 -6.66801,-1.5606 -2.62464,-0.0709 -2.41184,-0.70937 -4.25618,-1.27685 -1.84434,-0.56749 -2.76651,-2.62465 -4.75273,-3.75962 -1.9862,-1.13499 -4.39804,-3.9015 -4.39804,-3.9015 z" />
  </g>
  <g id="eyes" fill="#ff0000">
    <path d="m 281.90759,293.54285 c -0.26461,1.09096 -0.0616,2.22266 -0.14907,3.33034 0.0414,1.13242 0.43246,2.30495 -0.0377,3.40312 -0.46016,1.00275 -1.02995,1.99468 -1.12994,3.11682 -0.2121,1.16391 0.0136,2.36019 -0.21351,3.5228 0.0201,0.79573 -0.18904,1.5949 -0.0733,2.38335 0.13564,0.77461 0.82875,1.66066 0.4658,2.39853 -0.64339,0.10067 -0.32461,-1.00818 -0.66767,-1.38025 -0.36726,-0.70598 -0.35327,-1.48521 -0.23027,-2.24697 -9.3e-4,-1.01434 0.22346,-2.01378 0.15751,-3.03058 -0.036,-1.33108 0.24921,-2.67318 0.89001,-3.84556 0.40297,-0.74724 0.67609,-1.5871 0.54802,-2.4442 -0.0843,-0.70558 -0.2005,-1.40611 -0.15234,-2.1195 -0.005,-0.92917 -0.0607,-1.87378 0.0862,-2.79099 0.11017,-0.17773 0.34256,-0.19273 0.50624,-0.29691 z" />
    <path d="m 284.686,294.26853 c 0.0246,0.84982 0.77084,1.47132 0.82271,2.33205 0.33569,0.88237 0.006,1.78045 -0.0273,2.67526 -0.0346,0.83423 -0.10359,1.66365 -0.1298,2.49697 -0.002,0.81474 0.23348,1.6054 0.43081,2.38204 0.0433,1.08333 -0.0547,2.1764 -0.33607,3.22197 -0.0322,0.82738 -0.0407,1.6568 0.014,2.48344 -0.33086,0.33975 -0.66784,0.16462 -0.49351,-0.28839 0.001,-0.95514 -0.0826,-1.92969 0.207,-2.85523 0.15476,-0.87367 0.21342,-1.78632 0.0801,-2.66195 -0.38054,-1.07144 -0.4281,-2.22988 -0.29003,-3.34855 0.0216,-0.88102 0.0547,-1.76768 0.22864,-2.6301 0.0462,-0.86091 -0.25178,-1.71298 -0.5767,-2.48936 -0.33969,-0.40901 -0.72014,-1.14546 0.0702,-1.31815 z" />
    <path d="m 286.99425,293.97708 c 0.23657,0.89161 0.17605,1.834 -0.11635,2.70329 -0.24782,1.04057 -0.2765,2.10835 -0.23597,3.17171 -0.06,0.60997 0.0631,1.37859 -0.40208,1.82909 -0.63522,0.29295 0.10731,-0.89805 -0.0654,-1.28395 -0.0143,-1.24781 -0.0582,-2.51833 0.3046,-3.72821 0.31846,-0.79857 0.11447,-1.72558 0.13808,-2.49249 0.11564,-0.0848 0.259,-0.11852 0.37717,-0.19944 z" />
    <path d="m 307.67217,293.44507 c 0.0329,0.66066 0.32141,1.24903 0.62385,1.80401 0.27214,1.10974 -0.0348,2.24875 0.0486,3.37281 0.009,0.767 0.0274,1.54322 -0.173,2.28947 -0.14936,0.99552 -0.0858,2.00671 -0.197,3.00565 5.2e-4,0.93799 -0.0767,1.87318 -0.0952,2.81009 -0.006,0.58188 0.15502,1.15169 0.47709,1.63813 0.28894,0.31617 0.21723,0.83333 -0.27326,0.74895 -0.16439,-0.60796 -0.65637,-1.1346 -0.63965,-1.80349 -0.10427,-0.8675 0.0963,-1.73478 0.0511,-2.60426 0.0154,-0.88833 0.1074,-1.77054 0.11656,-2.65862 0.0118,-0.80364 0.30472,-1.57228 0.2665,-2.37742 -0.0139,-1.05144 -0.01,-2.10275 0.0657,-3.15169 0.10636,-0.75094 -0.30045,-1.37464 -0.5905,-2.01618 -0.0841,-0.44533 -0.28737,-0.92945 0.31925,-1.05745 z" />
    <path d="m 311.39619,294.1545 c -0.44219,0.42533 -1.06579,0.13916 -1.53686,0.52662 -0.19257,0.43236 0.58918,0.62876 0.40351,1.15815 0.0614,1.07601 0.24577,2.20638 -0.17344,3.23995 -0.27879,0.61955 -0.32449,1.30314 -0.32917,1.96913 -0.17768,1.2411 -0.47048,2.47683 -0.40052,3.73911 -0.002,0.82231 -0.003,1.64468 0.0121,2.46688 0.31773,0.67576 0.2794,1.44377 0.5003,2.14311 -0.009,0.48004 0.8988,0.82114 0.7634,0.1701 -0.32019,-0.30643 -0.44045,-0.73809 -0.47125,-1.17227 -0.0301,-0.43859 -0.11787,-0.87189 -0.28736,-1.27621 -0.1328,-0.80103 -0.006,-1.61675 -0.0508,-2.4245 -0.0281,-0.89291 0.0376,-1.78571 0.21564,-2.66068 0.11503,-0.69689 0.25457,-1.39714 0.22715,-2.10605 0.14035,-0.88385 0.63691,-1.70178 0.55437,-2.62081 0.006,-0.74277 -0.0432,-1.48938 -0.20134,-2.21648 0.22235,-0.33759 0.7635,-0.47375 0.77438,-0.93605 z m -1.03218,0.31144 c -0.0795,0.0659 -0.12241,0.10144 0,0 z" />
    <path d="m 314.06431,293.14227 c -0.25337,0.17875 -0.66102,0.37288 -0.0612,0.3961 1.00836,0.10177 0.52128,1.16215 0.22174,1.72296 -0.29119,0.6131 -0.25601,1.31548 -0.39327,1.96857 -0.15245,0.66727 0.12647,1.30573 0.46993,1.8631 0.41645,0.78004 0.35207,1.70969 0.33582,2.56707 -0.16366,1.09141 -0.19389,2.19801 -0.36297,3.28822 -0.31212,0.76749 -0.28629,1.61682 -0.24087,2.42571 -0.0897,0.55266 -0.0576,1.11595 -0.053,1.67349 -0.30556,0.20012 0.60717,-0.10306 0.50795,-0.35105 0.11177,-0.6196 0.0134,-1.25594 0.0527,-1.87263 0.0935,-0.40519 0.28115,-1.06148 0.35417,-1.31449 0.14757,0.76144 0.15436,1.54003 0.30974,2.30098 0.0496,0.71554 0.18029,1.44739 -0.0294,2.15291 -0.10833,0.71745 -0.16429,1.45566 -0.007,2.17086 0.44083,-0.1252 0.54831,-0.40835 0.37415,-0.84573 -0.0407,-0.76128 0.10972,-1.51008 0.21317,-2.25844 0.0148,-0.88686 -0.14111,-1.76029 -0.2538,-2.63564 -0.0302,-0.70963 -0.21308,-1.3969 -0.30975,-2.09648 -0.10645,-0.5251 -0.15107,-1.13123 -0.23802,-1.61125 0.0759,-0.77835 0.22251,-1.54931 0.15349,-2.33589 -0.0223,-0.669 -0.17252,-1.33265 -0.55655,-1.89174 -0.42539,-0.62362 -0.28062,-1.39632 -0.14615,-2.08353 0.019,-0.64826 0.22901,-1.25753 0.52357,-1.8271 0.36787,-0.62093 0.11218,-1.30408 -0.65654,-1.3525 l -0.1049,-0.0226 z" />
    <path d="m 279.44115,294.6662 c 0.11925,0.95397 0.83472,1.90795 2.7427,2.0272 1.90796,0.11925 5.60464,0.35774 6.67787,-0.7155 1.07323,-1.07323 2.74271,-1.66947 1.90799,-2.62345 -0.83476,-0.95398 -2.62349,-1.66947 -4.29293,-1.66947 -1.66947,0 -4.29293,0 -5.36616,0.59624 -1.07323,0.59624 -1.78873,0.83472 -1.66947,2.38498 z" />
    <path d="m 304.67012,293.71404 c 0.36485,1.16758 0.94864,1.75136 2.55406,2.1892 1.60541,0.43785 3.50271,0.65678 5.40003,0.14594 1.89731,-0.51079 2.62703,-0.65674 2.62703,-1.53242 0,-0.87567 -0.80268,-2.1892 -2.4081,-2.40813 -1.60542,-0.21892 -3.21083,-0.5838 -4.30544,-0.29191 -1.09459,0.29191 -3.42974,0.80273 -3.86758,1.89732 z" />
  </g>
</g>
<use id="shine" xlink:href="#shield" fill="url(#rg)" stroke="#000" stroke-width="3"/>
</svg>
